<svg width="31" height="31" viewBox="0 0 31 31" fill="none" xmlns="http://www.w3.org/2000/svg">
<path d="M8.32448 22.8555C9.4224 22.0159 10.6495 21.3539 12.0057 20.8695C13.362 20.3852 14.7828 20.143 16.2682 20.143C17.7536 20.143 19.1745 20.3852 20.5307 20.8695C21.887 21.3539 23.1141 22.0159 24.212 22.8555C24.9655 21.9728 25.5521 20.9718 25.9719 19.8524C26.3917 18.7329 26.6016 17.5381 26.6016 16.268C26.6016 13.4048 25.5951 10.9668 23.5823 8.95392C21.5694 6.94108 19.1314 5.93465 16.2682 5.93465C13.405 5.93465 10.967 6.94108 8.95417 8.95392C6.94132 10.9668 5.9349 13.4048 5.9349 16.268C5.9349 17.5381 6.14479 18.7329 6.56458 19.8524C6.98438 20.9718 7.57101 21.9728 8.32448 22.8555ZM16.2682 17.5597C14.9981 17.5597 13.9271 17.1237 13.0552 16.2518C12.1833 15.38 11.7474 14.309 11.7474 13.0388C11.7474 11.7687 12.1833 10.6977 13.0552 9.8258C13.9271 8.95392 14.9981 8.51799 16.2682 8.51799C17.5384 8.51799 18.6094 8.95392 19.4812 9.8258C20.3531 10.6977 20.7891 11.7687 20.7891 13.0388C20.7891 14.309 20.3531 15.38 19.4812 16.2518C18.6094 17.1237 17.5384 17.5597 16.2682 17.5597ZM16.2682 29.1847C14.4814 29.1847 12.8023 28.8456 11.2307 28.1675C9.6592 27.4893 8.29219 26.569 7.12969 25.4065C5.96719 24.244 5.04688 22.877 4.36875 21.3055C3.69063 19.734 3.35156 18.0548 3.35156 16.268C3.35156 14.4812 3.69063 12.802 4.36875 11.2305C5.04688 9.65896 5.96719 8.29194 7.12969 7.12944C8.29219 5.96694 9.6592 5.04663 11.2307 4.36851C12.8023 3.69038 14.4814 3.35132 16.2682 3.35132C18.055 3.35132 19.7342 3.69038 21.3057 4.36851C22.8773 5.04663 24.2443 5.96694 25.4068 7.12944C26.5693 8.29194 27.4896 9.65896 28.1677 11.2305C28.8458 12.802 29.1849 14.4812 29.1849 16.268C29.1849 18.0548 28.8458 19.734 28.1677 21.3055C27.4896 22.877 26.5693 24.244 25.4068 25.4065C24.2443 26.569 22.8773 27.4893 21.3057 28.1675C19.7342 28.8456 18.055 29.1847 16.2682 29.1847ZM16.2682 26.6013C17.4092 26.6013 18.4856 26.4345 19.4974 26.1008C20.5092 25.7671 21.4349 25.2881 22.2745 24.6638C21.4349 24.0395 20.5092 23.5605 19.4974 23.2268C18.4856 22.8932 17.4092 22.7263 16.2682 22.7263C15.1273 22.7263 14.0509 22.8932 13.0391 23.2268C12.0273 23.5605 11.1016 24.0395 10.262 24.6638C11.1016 25.2881 12.0273 25.7671 13.0391 26.1008C14.0509 26.4345 15.1273 26.6013 16.2682 26.6013ZM16.2682 14.9763C16.828 14.9763 17.2908 14.7933 17.6568 14.4274C18.0227 14.0614 18.2057 13.5985 18.2057 13.0388C18.2057 12.4791 18.0227 12.0162 17.6568 11.6503C17.2908 11.2843 16.828 11.1013 16.2682 11.1013C15.7085 11.1013 15.2457 11.2843 14.8797 11.6503C14.5137 12.0162 14.3307 12.4791 14.3307 13.0388C14.3307 13.5985 14.5137 14.0614 14.8797 14.4274C15.2457 14.7933 15.7085 14.9763 16.2682 14.9763Z" fill="#1F1F1F"/>
</svg>
